<?xml version="1.0" standalone="no"?>
<!DOCTYPE svg PUBLIC "-//W3C//DTD SVG 20010904//EN"
 "http://www.w3.org/TR/2001/REC-SVG-20010904/DTD/svg10.dtd">
<svg version="1.0" xmlns="http://www.w3.org/2000/svg"
 width="477.000000pt" height="472.000000pt" viewBox="0 0 477.000000 472.000000"
 preserveAspectRatio="xMidYMid meet">

<g transform="translate(0.000000,472.000000) scale(0.100000,-0.100000)"
fill="#4d1f00" stroke="none">
<path d="M2045 4263 c-53 -5 -65 -23 -54 -74 5 -23 16 -53 23 -68 23 -44 44
-151 51 -256 7 -111 13 -145 25 -145 5 0 11 8 13 18 2 9 2 2 0 -15 -2 -19 3
-43 12 -57 15 -23 15 -27 1 -48 -11 -15 -16 -45 -16 -94 0 -47 -4 -75 -13 -83
-11 -9 -13 3 -12 67 l2 77 -6 -64 c-3 -36 -11 -66 -17 -68 -5 -2 -25 17 -44
42 -39 52 -66 56 -87 15 -21 -41 -13 -111 31 -290 3 -14 3 -18 0 -10 -4 8 -10
17 -14 20 -12 9 -40 103 -46 155 -7 60 26 212 57 261 18 29 26 33 72 37 31 2
21 4 -25 3 -67 -1 -80 -4 -99 -24 -17 -19 -20 -31 -16 -60 6 -33 5 -35 -10
-19 -12 11 -18 36 -19 75 -3 66 -1 70 43 100 33 23 116 31 128 12 3 -5 14 -10
23 -10 15 1 15 2 -2 15 -12 9 -42 15 -76 15 -46 0 -61 -5 -89 -28 -41 -34 -58
-105 -37 -156 l14 -33 -87 -7 c-47 -3 -122 -16 -166 -27 -136 -36 -126 -36
-118 2 17 87 79 177 105 151 22 -22 38 -13 38 21 0 72 -94 101 -185 57 -22
-11 -46 -19 -53 -20 -28 0 -117 -105 -136 -159 -23 -66 -25 -200 -3 -268 8
-27 24 -78 35 -114 10 -36 38 -97 61 -135 51 -86 62 -102 84 -136 l18 -27 -50
6 c-51 6 -69 -3 -132 -62 -15 -14 -22 -14 -68 5 -74 29 -176 27 -244 -4 -86
-39 -154 -130 -140 -185 5 -21 4 -21 -53 -15 -33 4 -72 13 -87 21 -16 8 -35
12 -42 9 -24 -9 -55 -83 -55 -128 1 -51 22 -80 70 -97 32 -10 37 -17 58 -88
21 -68 31 -83 85 -138 42 -41 86 -72 134 -95 46 -22 69 -38 63 -44 -6 -6 -15
-4 -25 4 -23 19 -115 8 -154 -19 -42 -31 -63 -73 -69 -146 -6 -80 12 -160 54
-245 68 -135 182 -215 301 -210 205 8 214 6 218 -47 5 -71 52 -137 114 -162
37 -16 37 -20 11 -71 -35 -69 -23 -111 37 -130 21 -7 45 -19 53 -26 9 -7 32
-20 53 -29 33 -14 40 -14 79 2 57 22 94 47 146 101 27 27 41 50 38 59 -3 8 -6
17 -6 19 0 2 -11 4 -25 4 l-25 0 20 37 c42 80 70 95 70 41 1 -18 9 -55 18 -83
17 -49 17 -51 -9 -127 -60 -176 -111 -248 -173 -248 -24 0 -66 46 -80 89 -15
45 -30 49 -46 11 -18 -44 1 -128 38 -162 54 -49 74 -58 140 -58 104 0 181 55
237 169 17 33 33 61 36 61 3 0 20 -21 37 -48 41 -63 67 -90 132 -137 85 -61
116 -76 174 -82 62 -6 130 20 178 69 l28 29 70 -60 c114 -98 217 -143 394
-171 88 -14 163 0 200 37 21 21 26 35 26 75 0 27 -5 58 -10 69 -14 24 -64 51
-84 43 -20 -8 -21 -43 -1 -50 34 -14 11 -24 -52 -24 -121 0 -186 33 -299 149
l-69 70 -38 133 c-41 147 -74 324 -62 336 4 4 10 2 12 -5 5 -13 64 -105 73
-113 19 -17 82 -126 102 -176 40 -102 130 -176 300 -248 56 -24 213 -22 279 5
52 20 53 20 79 1 26 -20 26 -19 25 2 0 11 -4 27 -8 33 -6 10 0 11 25 8 l33 -5
-32 10 c-36 12 -46 23 -49 58 -5 47 -101 158 -128 149 -6 -2 -10 -21 -9 -41 3
-41 -7 -45 -61 -22 -38 16 -110 85 -132 128 -9 18 -21 28 -29 24 -10 -3 -12 0
-8 11 4 10 2 14 -5 9 -6 -3 -14 -1 -18 5 -4 8 -3 9 4 5 20 -12 13 10 -8 29
-11 10 -20 24 -20 31 0 7 -4 14 -9 16 -5 2 -35 39 -68 83 -125 170 -72 116 90
-90 56 -71 117 -143 137 -160 l35 -30 -39 50 c-22 28 -44 55 -50 60 -6 6 -38
46 -71 90 -91 121 -90 119 -75 110 18 -11 71 -70 139 -157 62 -77 108 -124
115 -117 3 2 -17 29 -44 59 -27 30 -47 56 -45 58 2 2 21 -9 42 -26 21 -16 79
-51 128 -77 50 -26 122 -69 160 -95 108 -73 143 -88 203 -87 68 1 68 19 -1 51
-70 33 -157 118 -227 221 -68 100 -149 202 -199 250 -50 48 -51 49 -29 61 19
10 28 6 72 -30 28 -22 76 -52 106 -65 30 -13 70 -30 89 -38 44 -18 149 -28
180 -15 18 6 36 4 63 -6 31 -12 45 -13 83 -2 26 7 53 22 61 34 67 96 68 99 69
172 0 57 -5 80 -26 120 -15 27 -34 74 -44 104 -22 69 -75 150 -139 214 -27 28
-44 52 -37 54 16 5 41 68 41 102 0 29 -27 60 -53 60 -18 0 -23 20 -8 36 8 8
41 128 41 149 0 5 -7 0 -15 -11 -8 -10 -15 -29 -15 -42 -1 -62 -80 -153 -164
-191 -137 -60 -502 -49 -676 22 -42 17 -6 18 55 2 85 -22 228 -20 305 5 147
47 219 110 276 243 l21 49 6 -30 c8 -41 -10 -100 -45 -145 -16 -20 -24 -35
-16 -32 7 3 28 28 46 55 37 56 42 110 17 180 -21 58 -20 90 3 90 60 0 172
-101 172 -156 0 -24 14 -32 24 -15 3 4 54 25 113 47 59 21 117 43 128 49 122
66 175 154 174 289 -1 158 -80 266 -195 266 -42 0 -51 -4 -85 -40 -68 -71 -62
-116 13 -104 49 8 73 -1 86 -32 13 -27 16 -87 6 -97 -4 -3 -24 12 -46 33 -56
57 -165 100 -255 100 -43 0 -43 0 -43 36 0 36 -20 82 -52 118 -10 11 -18 22
-18 25 0 3 -2 40 -3 81 -2 54 -9 87 -25 117 -14 26 -22 60 -22 90 0 26 -7 68
-16 93 -29 83 -131 151 -204 136 -15 -3 -49 2 -75 10 -65 19 -101 18 -176 -6
-94 -30 -194 -94 -276 -176 l-71 -72 -6 34 c-4 18 -4 45 0 61 12 54 78 174
112 204 19 17 31 33 28 36 -3 4 -16 -2 -27 -13 -27 -23 -104 -140 -113 -171
-7 -23 -26 -32 -26 -13 0 11 32 65 77 132 24 35 89 88 109 88 5 0 2 -5 -6 -10
-8 -5 -10 -10 -5 -10 18 0 38 18 31 28 -9 14 19 20 77 17 28 -1 53 -8 57 -16
11 -16 4 -29 -16 -29 -9 0 -14 -7 -12 -17 4 -25 62 -29 95 -8 62 41 82 172 32
216 -37 33 -108 60 -169 66 -45 4 -74 -1 -155 -27 -117 -39 -157 -72 -225
-187 -39 -66 -46 -73 -74 -73 -17 0 -41 -3 -53 -6 -18 -5 -23 -1 -28 19 -4 14
-5 34 -3 44 3 14 8 11 26 -17 12 -19 22 -31 22 -27 0 15 -23 51 -42 67 -12 9
-25 42 -34 84 -22 105 -91 226 -189 332 -43 46 -80 57 -170 47z m63 -29 c6
-10 12 -13 16 -6 30 48 162 -141 228 -328 69 -193 68 -192 57 -206 -18 -22
-25 -17 -37 24 -6 20 -25 53 -42 72 -30 35 -52 94 -70 188 -20 106 -82 202
-131 202 -11 0 -19 7 -20 18 -1 20 -4 12 -19 -46 -9 -36 -14 -41 -25 -32 -8 7
-17 22 -21 33 -3 12 -16 32 -27 44 -11 13 -17 26 -14 30 6 5 43 14 89 22 4 0
11 -6 16 -15z m-69 -95 c18 -52 13 -66 -9 -24 -22 43 -24 55 -11 55 5 0 14
-14 20 -31z m1014 -173 c56 -23 87 -63 87 -111 0 -43 -32 -104 -59 -113 -10
-3 -12 6 -6 46 6 46 4 53 -22 82 -27 30 -34 33 -87 32 -64 0 -112 -21 -185
-80 -58 -47 -119 -112 -127 -134 -5 -16 -8 -16 -32 -3 -56 30 -56 28 -19 86
66 102 161 176 254 198 59 14 160 12 196 -3z m-1453 -231 c7 -18 3 -20 -46
-21 -68 -2 -97 -21 -120 -79 -30 -81 -2 -326 56 -490 28 -76 36 -125 21 -125
-14 0 -51 -36 -51 -50 0 -5 -4 -10 -8 -10 -10 0 -72 107 -72 124 0 7 -15 46
-34 87 -61 132 -76 186 -76 276 0 88 20 157 62 213 31 42 38 37 23 -14 -31
-102 -27 -232 11 -401 19 -83 54 -175 67 -175 5 0 6 8 2 18 -4 9 -14 38 -21
65 -7 26 -16 51 -19 57 -13 22 -45 258 -40 295 27 183 84 259 189 253 38 -2
50 -7 56 -23z m979 -67 c20 -12 43 -31 51 -43 20 -27 40 -85 29 -85 -5 0 -9 5
-9 12 0 6 -3 8 -7 5 -3 -4 4 -18 17 -32 13 -14 25 -38 27 -53 1 -15 5 -46 9
-69 9 -59 -7 -54 -40 12 -33 67 -61 87 -138 96 -33 4 -62 9 -64 12 -3 3 -1 15
6 26 16 31 -3 25 -46 -14 -48 -42 -64 -44 -64 -6 0 73 50 147 104 154 69 9 90
6 125 -15z m631 -36 c-19 -9 -60 -27 -90 -41 -61 -28 -184 -115 -215 -152
l-20 -23 22 14 c157 107 163 111 185 105 15 -4 18 -3 10 3 -17 11 31 38 50 27
7 -5 10 -4 5 0 -13 14 104 57 168 62 70 5 117 -15 152 -66 22 -32 50 -128 40
-138 -3 -3 -25 10 -49 30 -36 29 -54 36 -113 42 -95 11 -164 12 -158 3 2 -5
-8 -8 -24 -8 -35 0 -115 -50 -144 -89 -17 -24 -27 -29 -48 -25 -48 10 -136
-23 -180 -68 -25 -24 -41 -34 -41 -25 0 8 -7 20 -15 27 -34 28 0 103 79 169
15 14 33 30 40 36 28 27 127 84 186 108 47 19 83 26 130 26 l65 0 -35 -17z
m-882 -5 c17 -20 3 -87 -17 -87 -36 0 -81 -70 -81 -127 0 -7 -4 -13 -10 -13
-5 0 -10 -9 -10 -20 0 -27 -15 -25 -39 6 -15 19 -21 43 -22 83 -2 53 -2 54 -8
16 l-7 -40 -8 32 c-9 39 2 120 18 131 13 8 110 29 147 31 15 0 31 -5 37 -12z
m-448 -106 c0 -57 -5 -60 -83 -54 -84 6 -164 -7 -246 -40 l-59 -24 -5 31 c-3
17 -2 34 2 39 18 19 251 66 374 76 12 1 17 -7 17 -28z m544 -37 c10 -27 7 -80
-8 -115 -14 -34 -14 -34 -18 41 -2 41 -2 78 0 83 6 12 20 8 26 -9z m31 -181
c-17 -45 -24 -50 -42 -32 -8 8 -4 22 12 52 13 23 27 65 32 92 l8 50 3 -60 c2
-38 -3 -75 -13 -102z m939 137 c31 -10 70 -28 85 -40 33 -23 85 -105 78 -123
-2 -7 -11 2 -19 18 -22 40 -63 78 -118 106 -37 19 -64 23 -145 25 l-100 3 99
-14 c54 -8 113 -19 131 -25 47 -16 112 -75 125 -115 6 -19 16 -35 21 -35 13 0
11 -74 -3 -105 -13 -30 -16 -30 -45 -6 -14 12 -23 31 -23 48 -1 41 -32 104
-70 137 -24 21 -53 32 -110 43 -75 15 -80 15 -141 -6 -35 -12 -71 -24 -79 -27
-10 -3 -21 4 -30 21 -12 23 -12 28 6 45 10 11 48 30 84 44 82 32 174 34 254 6z
m-1567 -49 c7 -9 21 -43 33 -75 41 -122 18 -168 -61 -117 -24 15 -51 36 -59
45 -15 19 -52 37 -85 41 -11 2 -40 16 -64 32 -33 21 -39 29 -25 32 10 2 23 -4
29 -13 7 -9 17 -16 22 -16 6 0 16 -7 23 -15 7 -8 16 -15 21 -15 16 0 -1 25
-31 45 -28 18 -41 45 -22 45 10 0 78 -35 95 -48 7 -5 23 -13 37 -17 21 -7 22
-6 10 7 -8 8 -37 27 -64 43 -48 28 -48 28 -25 41 41 23 73 16 119 -23 28 -24
39 -30 32 -17 -6 12 -18 26 -26 34 -9 7 -16 17 -16 22 0 12 42 -11 57 -31z
m312 -28 c-1 -34 -2 -35 -9 -13 -11 36 -11 50 0 50 6 0 10 -17 9 -37z m537
-25 c26 -18 50 -40 53 -48 4 -13 2 -13 -15 0 -14 10 -13 7 4 -11 13 -15 22
-38 22 -57 0 -17 5 -34 10 -37 6 -3 10 -16 10 -28 0 -19 -5 -17 -35 18 -19 22
-34 37 -35 33 0 -4 -19 0 -42 8 -24 8 -59 14 -78 14 -84 -4 -120 0 -120 13 0
31 59 95 102 110 61 22 70 21 124 -15z m342 -13 c30 -35 28 -51 -4 -30 -40 26
-40 11 0 -27 22 -20 39 -47 43 -67 l6 -34 -29 16 c-69 37 -123 56 -181 62 -39
4 -63 12 -63 19 0 16 47 60 85 81 43 23 113 13 143 -20z m-871 -27 c-3 -8 -6
-5 -6 6 -1 11 2 17 5 13 3 -3 4 -12 1 -19z m222 -17 c22 -14 23 -16 6 -20 -10
-2 -25 -10 -34 -18 -13 -14 -10 -15 27 -8 39 6 45 4 77 -28 22 -22 35 -45 35
-61 l0 -26 -21 21 c-24 24 -39 18 -18 -8 12 -15 12 -16 -3 -10 -12 4 -15 2
-11 -9 7 -19 -6 -18 -28 2 -29 26 -106 20 -177 -16 -73 -36 -99 -38 -112 -7
-8 20 -9 19 -9 -10 -1 -19 5 -36 15 -41 19 -11 15 -58 -5 -54 -9 2 -11 -3 -7
-14 3 -9 9 -27 12 -41 6 -24 5 -25 -20 -19 -34 8 -34 -11 0 -26 29 -14 44 0
44 40 0 13 8 37 17 55 9 18 16 36 15 40 -1 5 2 6 8 2 5 -3 10 -2 10 3 0 6 7
13 16 16 13 5 12 0 -5 -29 -11 -20 -23 -55 -26 -78 -4 -31 -3 -36 4 -17 16 48
62 138 75 149 16 13 66 25 66 15 0 -3 -9 -19 -20 -34 l-20 -29 30 9 c17 5 32
5 35 -1 4 -5 16 -9 28 -9 21 0 21 -1 -6 -25 -36 -34 -34 -41 3 -13 17 12 30
25 30 30 0 4 7 8 15 8 17 0 19 -12 5 -26 -6 -6 -13 -34 -17 -62 -4 -34 -10
-49 -17 -45 -6 3 -8 3 -4 -2 4 -4 2 -17 -3 -28 -10 -17 -9 -19 10 -14 11 3 21
3 21 0 0 -19 -164 -188 -183 -188 -16 0 -35 64 -37 120 l-1 50 -13 -31 c-27
-61 -43 -54 -56 24 -7 41 -8 43 -9 13 l-1 -34 -22 28 c-13 16 -23 44 -24 67
-1 33 -8 44 -36 63 -45 30 -62 58 -77 122 -15 61 -8 77 28 70 16 -3 33 1 44
10 15 14 17 14 17 1 0 -9 7 -29 15 -44 l15 -29 0 54 0 54 35 -6 c30 -5 37 -3
45 16 14 33 41 63 80 86 40 24 95 21 139 -8z m-615 -71 c16 -16 37 -32 47 -35
23 -8 26 -57 5 -75 -8 -6 -20 -27 -26 -46 -16 -46 -34 -43 -60 11 -27 56 -35
111 -21 148 13 34 19 34 55 -3z m1059 16 c22 -17 22 -28 -2 -43 -16 -10 -20
-9 -25 10 -13 48 -5 57 27 33z m117 -12 c0 -2 -9 -4 -21 -4 -11 0 -18 4 -14
10 5 8 35 3 35 -6z m477 0 c3 -8 0 -21 -6 -27 -10 -9 -16 -8 -26 7 -8 10 -12
23 -9 27 9 15 34 10 41 -7z m41 -17 c2 -10 -3 -17 -12 -17 -10 0 -16 9 -16 21
0 24 23 21 28 -4z m-900 -18 c-3 -8 -7 -3 -11 10 -4 17 -3 21 5 13 5 -5 8 -16
6 -23z m455 -13 c18 -7 46 -28 62 -45 l30 -32 -30 11 c-16 6 -34 15 -40 19 -5
5 -26 12 -45 15 l-35 7 44 -23 c87 -46 147 -145 125 -206 -6 -16 -17 -26 -25
-24 -8 2 -34 9 -59 15 l-45 11 0 62 c0 73 -14 94 -92 134 -56 29 -66 40 -51
57 14 17 120 17 161 -1z m210 -10 c-21 -28 -72 -61 -80 -52 -9 8 66 76 83 76
12 0 12 -4 -3 -24z m-1603 -21 c0 -5 -5 -3 -10 5 -5 8 -10 20 -10 25 0 6 5 3
10 -5 5 -8 10 -19 10 -25z m1840 20 c0 -9 -7 -18 -15 -21 -8 -4 -15 -12 -15
-19 0 -8 -6 -17 -12 -22 -17 -11 -178 -20 -178 -10 0 4 12 7 28 8 23 0 24 2 7
8 -19 8 -19 8 0 19 11 6 15 12 10 12 -6 0 -15 -4 -20 -9 -6 -4 -23 -12 -40
-15 -26 -6 -28 -5 -15 7 30 28 122 54 198 56 40 1 52 -2 52 -14z m-1530 -10
c11 -13 9 -19 -7 -38 -11 -12 -26 -33 -32 -47 -10 -19 -6 -17 18 10 26 30 31
32 31 15 0 -12 5 -26 10 -31 13 -13 -10 -61 -45 -94 -21 -19 -29 -22 -43 -13
-14 9 -17 24 -14 84 3 96 8 117 30 122 31 8 39 7 52 -8z m892 -17 c-9 -9 -12
-7 -12 12 0 19 3 21 12 12 9 -9 9 -15 0 -24z m-1130 -15 c10 -9 18 -24 18 -33
0 -10 8 -28 18 -41 11 -13 22 -39 25 -58 l7 -33 -38 6 c-55 10 -112 37 -113
55 -5 49 4 87 24 103 28 22 36 22 59 1z m1814 -8 c5 -18 11 -24 23 -20 40 12
77 -83 67 -171 -14 -120 -74 -240 -166 -330 -69 -67 -96 -86 -126 -90 -28 -3
-29 -1 -8 20 14 15 14 16 -2 16 -10 0 -26 -7 -36 -17 -17 -15 -18 -15 -18 5 0
12 8 23 20 27 11 3 25 16 31 27 11 21 11 21 -17 -1 l-28 -22 -17 51 c-9 28
-24 59 -33 69 -21 23 -20 32 8 59 28 26 82 119 92 156 3 14 10 26 14 26 4 0
10 10 14 23 7 26 52 84 60 77 6 -6 -29 -135 -44 -161 -19 -35 -39 -89 -32 -89
17 1 78 161 87 230 8 56 29 110 44 110 4 0 13 -24 19 -52 10 -50 11 -50 6 -8
-3 25 -7 55 -11 68 -4 18 -1 22 21 22 19 0 27 -6 32 -25z m119 -45 c28 -54 32
-111 11 -129 -11 -9 -14 -1 -18 49 -3 41 -11 69 -27 90 -12 17 -19 35 -16 40
10 16 23 2 50 -50z m-917 20 c34 -25 45 -70 17 -70 -8 0 -15 -4 -15 -8 0 -5
-15 -17 -32 -27 -18 -9 -42 -31 -53 -49 -18 -27 -26 -31 -73 -34 -58 -3 -65 6
-26 37 15 12 21 21 15 21 -7 0 -32 -16 -57 -36 -51 -42 -62 -33 -44 37 35 135
172 200 268 129z m1372 -13 c15 -7 39 -39 59 -77 31 -58 35 -73 35 -145 0 -90
-18 -136 -80 -204 -46 -51 -187 -121 -245 -121 -17 0 -38 -7 -47 -16 -15 -15
-19 -14 -49 22 -18 22 -33 42 -33 45 0 4 17 10 38 14 20 3 52 15 70 26 20 11
52 19 80 19 l47 0 -34 -21 c-18 -11 -31 -22 -28 -25 7 -8 97 46 97 57 0 15
-33 24 -38 11 -2 -7 -21 -12 -43 -12 -44 0 -50 14 -23 55 8 13 15 42 16 65 0
35 -5 48 -34 77 -38 38 -84 52 -165 53 -58 0 -61 4 -34 37 18 21 23 22 73 13
136 -25 219 -65 253 -123 20 -33 15 -124 -7 -138 -7 -4 -9 -11 -6 -14 12 -12
28 6 28 30 0 13 5 27 10 30 6 3 10 15 10 26 0 11 4 18 9 15 5 -4 7 4 3 16 -3
13 -1 19 5 15 13 -8 23 24 23 73 0 76 -68 121 -146 96 -29 -9 -36 11 -18 52 9
23 27 39 56 52 44 20 70 19 118 -3z m-2230 -132 c10 -9 26 -14 37 -11 10 3 22
7 28 8 9 3 12 -88 3 -97 -3 -3 -35 23 -71 56 -53 49 -67 68 -67 90 0 16 5 29
10 29 6 0 10 10 10 23 0 13 6 29 13 36 10 10 13 -1 15 -52 2 -48 8 -69 22 -82z
m1336 123 c4 -7 4 -10 -1 -6 -4 4 -14 3 -22 -3 -10 -9 -13 -8 -13 5 0 19 26
22 36 4z m-196 -67 c0 -31 -27 -91 -41 -91 -7 0 -8 4 -2 13 5 6 10 22 11 35 1
23 0 23 -25 7 l-26 -17 17 23 c9 13 16 37 16 55 0 17 3 34 6 37 10 10 44 -39
44 -62z m-1397 9 c10 -12 17 -37 17 -61 0 -25 8 -50 22 -69 12 -16 19 -33 15
-36 -3 -4 -32 -3 -63 1 -61 7 -99 36 -111 82 -11 48 38 99 52 54 3 -11 13 -22
21 -25 13 -5 13 -3 -1 16 -8 13 -15 30 -15 40 0 25 41 23 63 -2z m1251 -36
c25 -10 19 -21 -14 -26 -23 -3 -30 -1 -26 9 7 18 -8 16 -54 -7 -93 -47 -60
-90 34 -45 31 15 66 25 78 23 20 -3 23 -8 21 -41 -3 -47 -29 -84 -68 -96 -16
-5 -24 -10 -16 -10 8 -1 22 -8 31 -16 15 -13 19 -11 46 22 78 99 83 103 133
102 55 0 135 -30 139 -52 2 -8 -3 -30 -11 -49 l-14 -34 -82 -1 -81 0 -1 46 c0
25 -3 40 -6 32 -7 -17 -70 -74 -92 -82 -9 -4 -24 -2 -33 3 -31 15 -20 -8 17
-38 33 -26 35 -31 35 -91 0 -64 -13 -82 -29 -40 -21 54 -94 107 -193 142 -55
19 -75 31 -71 41 8 21 109 47 157 41 l41 -6 -43 14 c-24 8 -49 12 -56 9 -8 -3
-17 -1 -20 5 -4 6 -19 5 -41 -5 -19 -8 -44 -14 -55 -14 -11 0 -20 -7 -20 -15
0 -8 -4 -15 -9 -15 -5 0 -13 -10 -17 -22 -3 -13 -13 -31 -22 -40 -29 -34 -40
-21 -47 56 -6 62 -4 78 10 98 l17 23 -5 -23 c-3 -12 -1 -20 4 -16 5 3 9 12 9
20 0 17 14 18 39 2 16 -10 17 -14 5 -25 -19 -19 -18 -44 1 -37 8 4 15 10 15
15 0 5 4 8 8 7 5 -2 38 27 73 64 58 61 68 67 102 66 20 -1 40 2 44 5 8 9 46 9
67 1z m-1033 -99 c13 -18 27 -31 32 -28 13 8 36 -17 57 -65 21 -46 26 -82 12
-82 -25 0 -112 122 -112 158 0 11 -13 32 -30 45 -16 14 -30 28 -30 32 0 13 50
-29 71 -60z m219 46 c-13 -25 -13 -81 0 -81 6 0 10 6 10 13 0 8 4 7 10 -3 6
-8 8 -26 5 -40 -3 -14 4 -43 15 -65 11 -22 17 -29 14 -17 -5 19 -2 23 11 20
16 -3 44 -70 45 -105 0 -22 -25 -14 -72 22 -46 35 -88 103 -88 143 0 30 39
132 51 132 6 0 6 -7 -1 -19z m-564 -29 c19 -24 17 -34 -5 -27 -11 3 -31 3 -45
-1 -20 -5 -25 -13 -28 -42 -2 -28 -8 -38 -24 -40 -26 -4 -74 34 -74 59 0 23 9
24 25 2 11 -15 13 -14 13 10 0 15 8 37 18 48 16 17 26 20 63 15 24 -3 50 -14
57 -24z m1824 18 c0 -8 -62 -30 -85 -30 -14 1 57 39 73 40 6 0 12 -4 12 -10z
m-2065 -62 c3 -3 -26 -8 -63 -11 -146 -14 -208 -76 -172 -171 10 -26 2 -40
-16 -28 -5 4 -23 29 -39 57 -35 61 -45 45 -13 -22 18 -37 30 -50 56 -58 44
-13 41 -29 -5 -22 -45 8 -82 33 -106 75 -31 53 0 113 87 168 48 30 132 42 204
29 34 -7 65 -14 67 -17z m2055 23 c0 -9 -92 -43 -98 -36 -9 9 11 25 31 25 12
0 29 5 37 10 19 12 30 13 30 1z m-1476 -71 c21 -31 26 -45 17 -48 -8 -3 -2
-11 16 -23 l28 -19 -50 0 c-74 0 -100 17 -99 63 1 38 29 80 48 74 6 -2 24 -23
40 -47z m112 3 c-4 -4 -11 -1 -16 7 -16 25 -11 35 7 17 9 -9 13 -20 9 -24z
m-276 1 c22 -15 38 -29 36 -31 -5 -5 -96 46 -96 53 0 11 24 2 60 -22z m790
-21 c0 -17 -12 -39 -32 -60 -18 -18 -26 -33 -20 -33 19 0 -13 -71 -46 -99 -24
-22 -27 -22 -30 -7 -8 38 11 88 49 133 59 72 59 71 59 83 0 5 5 10 10 10 6 0
10 -12 10 -27z m-1105 -3 c44 -21 47 -32 14 -52 -54 -33 -33 -88 51 -134 28
-15 48 -29 46 -31 -14 -14 -94 24 -137 64 -52 49 -58 66 -33 101 8 12 10 22 5
22 -6 0 -11 6 -11 13 0 14 21 39 30 34 3 -1 19 -9 35 -17z m763 -5 c-3 -3 -9
2 -12 12 -6 14 -5 15 5 6 7 -7 10 -15 7 -18z m-87 -89 c11 -11 19 -23 19 -27
0 -3 15 -17 34 -30 21 -14 32 -28 28 -38 -3 -9 -1 -12 7 -7 17 11 41 -12 41
-41 0 -21 -3 -23 -22 -18 -59 18 -129 125 -141 215 l-6 45 11 -39 c6 -22 19
-49 29 -60z m1815 73 c92 -41 25 -78 -159 -86 l-118 -5 18 37 c24 50 72 74
151 75 43 0 77 -7 108 -21z m-711 -40 c37 -22 60 -49 85 -97 22 -44 39 -159
21 -148 -6 4 -11 13 -11 20 0 8 -7 29 -15 47 l-15 34 7 -45 c3 -25 10 -46 15
-48 4 -2 8 -25 8 -51 0 -37 -6 -54 -31 -84 -33 -40 -57 -51 -39 -18 36 68 -32
266 -117 345 -15 14 -33 26 -40 26 -34 0 -3 35 37 43 32 5 58 -1 95 -24z
m-1145 -22 c0 -7 9 -29 19 -50 12 -23 15 -37 7 -37 -6 0 -19 16 -28 36 -20 38
-24 79 -8 69 6 -3 10 -12 10 -18z m231 -122 c-16 -44 -31 -59 -31 -30 0 8 5
15 10 15 7 0 7 6 0 19 -13 26 -13 55 2 104 l12 40 12 -52 c9 -43 9 -59 -5 -96z
m249 134 c0 -6 -6 -17 -14 -24 -11 -12 -13 -10 -13 11 0 14 5 24 13 24 8 0 14
-5 14 -11z m-822 -5 c18 -5 22 -13 22 -45 0 -28 -4 -39 -15 -39 -8 0 -22 -11
-31 -25 l-17 -26 -23 22 c-38 35 -30 96 8 62 22 -20 35 -11 13 10 -18 19 -19
34 -2 40 17 7 19 7 45 1z m935 -12 c-2 -11 -25 -25 -56 -36 -29 -10 -62 -29
-73 -42 -12 -12 -25 -20 -28 -17 -24 24 23 73 69 73 24 0 39 6 47 20 16 25 48
27 41 2z m387 9 c0 -5 -7 -14 -15 -21 -13 -10 -15 -9 -15 9 0 12 6 21 15 21 8
0 15 -4 15 -9z m-1028 -36 c15 -15 28 -33 28 -41 0 -17 -1 -17 -42 0 -18 7
-59 22 -90 31 -82 26 -77 45 9 40 56 -3 72 -8 95 -30z m730 18 c44 -17 106
-60 146 -101 48 -50 19 -43 -56 13 -72 54 -87 58 -32 9 22 -20 40 -44 40 -53
0 -9 14 -25 30 -35 35 -20 72 -57 65 -64 -3 -3 -13 2 -22 10 -22 18 -78 38
-108 38 -30 0 -150 171 -132 189 14 14 19 14 69 -6z m-1967 -23 c3 -5 27 -10
53 -10 79 0 98 -31 27 -44 -19 -4 -47 -17 -62 -30 -15 -13 -38 -28 -50 -35
-22 -11 -23 -10 -23 24 0 64 36 126 55 95z m2357 -24 c43 -53 98 -200 98 -260
0 -46 -45 -81 -117 -91 -60 -8 -86 3 -88 36 -1 13 -5 31 -9 40 -6 14 2 17 48
21 65 5 96 28 96 69 0 16 -16 67 -35 113 -19 47 -35 90 -35 95 0 20 15 12 42
-23z m811 17 c4 -3 -26 -17 -65 -30 -79 -25 -98 -28 -98 -15 0 5 26 15 58 22
31 7 64 16 72 21 19 10 25 11 33 2z m-1959 -39 c42 -20 59 -44 31 -44 -9 0
-14 -4 -11 -9 8 -12 -136 -21 -152 -9 -7 6 -30 8 -52 5 -43 -5 -51 5 -27 35
39 50 134 60 211 22z m383 -21 c-2 -41 -5 -48 -22 -48 -22 0 -23 18 -3 68 16
41 27 33 25 -20z m303 15 c0 -18 3 -44 7 -56 6 -24 5 -24 -53 -17 -80 10 -106
21 -102 42 4 21 82 62 121 62 24 1 27 -3 27 -31z m970 3 c0 -5 3 -16 6 -24 4
-10 -6 -18 -33 -25 l-38 -11 35 2 c55 2 61 -7 43 -57 l-17 -44 -80 -16 c-106
-21 -176 -21 -176 -1 0 8 9 15 20 15 11 0 20 4 20 10 0 5 11 12 25 16 14 3 25
10 25 14 0 4 9 10 21 13 12 3 18 10 14 16 -6 10 10 15 42 14 7 -1 10 3 7 9 -3
5 6 21 20 35 14 14 26 30 26 34 0 5 9 9 20 9 11 0 20 -4 20 -9z m-910 -67 c0
-6 7 -17 15 -24 18 -15 19 -30 3 -30 -17 0 -55 57 -63 95 l-7 30 26 -30 c14
-16 25 -35 26 -41z m-639 36 l24 -19 -37 -1 c-31 0 -38 3 -38 20 0 25 21 26
51 0z m-876 -10 c24 -6 18 -8 -34 -9 -57 -1 -62 1 -50 15 8 10 20 13 33 9 12
-4 35 -10 51 -15z m157 0 c13 -5 32 -17 43 -25 20 -16 20 -17 -9 -40 -24 -19
-30 -31 -29 -60 1 -32 -1 -35 -20 -29 -12 3 -37 20 -54 37 -26 24 -33 39 -33
68 0 53 43 74 102 49z m1120 -21 c12 -7 58 -16 102 -20 74 -8 83 -12 108 -41
15 -17 26 -33 24 -36 -2 -2 -34 6 -71 17 -37 12 -72 21 -79 21 -15 -1 40 -26
84 -39 34 -11 34 -11 -10 -6 -24 3 -49 10 -55 14 -5 5 -30 12 -55 16 -55 9
-76 20 -90 45 -19 36 3 50 42 29z m616 -21 c14 -39 10 -44 -49 -52 -42 -6 -46
-5 -57 19 -10 22 -9 26 6 31 9 3 28 11 42 19 38 20 45 18 58 -17z m-2194 13
c3 -5 -1 -14 -9 -21 -10 -8 -15 -31 -15 -65 0 -58 29 -111 86 -159 42 -34 133
-76 164 -75 17 1 11 4 -17 11 -24 5 -43 13 -43 19 0 5 -7 9 -16 9 -8 0 -12 4
-9 10 3 6 -1 7 -9 4 -9 -3 -16 -1 -16 6 0 6 -5 8 -12 4 -7 -5 -9 -2 -5 9 4 11
2 14 -7 11 -8 -3 -32 14 -55 37 -43 45 -58 90 -46 136 7 27 8 25 26 -27 11
-30 34 -69 51 -87 39 -40 122 -83 161 -83 17 0 26 -4 22 -11 -5 -7 12 -8 54
-3 52 6 65 4 81 -11 26 -23 12 -34 -45 -36 -89 -3 -100 -18 -12 -16 94 1 107
-5 107 -50 0 -17 -8 -24 -36 -29 -50 -9 -134 2 -185 26 -24 11 -35 18 -24 16
79 -18 198 -36 203 -32 11 12 -10 19 -80 26 -54 5 -89 16 -132 39 -32 18 -65
30 -73 27 -8 -3 -11 -2 -8 3 6 10 -32 26 -52 23 -22 -5 -53 18 -53 38 0 11 -9
36 -19 56 -18 33 -20 34 -23 12 -2 -13 -7 2 -12 35 -4 31 -12 57 -17 57 -5 0
-9 11 -9 25 0 43 66 95 84 66z m940 -6 c11 -8 16 -15 11 -15 -5 0 -1 -6 8 -13
16 -11 12 -18 -45 -67 -81 -72 -120 -111 -135 -135 -11 -19 -12 -19 -30 -2
-26 26 -25 126 2 162 17 24 35 35 115 76 24 12 53 10 74 -6z m-820 -20 c11 -8
31 -15 45 -15 21 0 23 -2 11 -10 -19 -12 -150 -13 -150 -1 0 41 54 56 94 26z
m975 1 c10 -12 9 -20 -4 -40 -10 -14 -23 -26 -30 -26 -6 0 -19 -8 -28 -18 -12
-13 -27 -16 -62 -14 l-47 4 36 33 c20 18 36 42 36 54 0 18 6 21 44 21 26 0 48
-6 55 -14z m446 -26 c28 -15 77 -35 110 -45 47 -13 56 -19 42 -26 -9 -6 -17
-19 -17 -29 0 -11 -6 -20 -14 -20 -7 0 -20 -10 -29 -22 l-15 -23 -48 35 c-84
59 -149 119 -140 127 2 3 21 -4 43 -15 21 -11 49 -22 63 -26 14 -4 -5 9 -42
29 -36 19 -70 40 -74 46 -12 20 66 0 121 -31z m-1215 20 c0 -5 13 -29 29 -52
16 -24 27 -46 25 -50 -6 -10 24 -68 35 -68 14 0 22 -29 15 -56 -9 -34 -24 -30
-71 19 -36 35 -44 53 -56 112 -10 45 -12 76 -6 88 10 18 29 23 29 7z m840 -10
c10 -19 9 -20 -17 -14 -35 8 -37 10 -28 23 10 18 33 13 45 -9z m900 -60 c0
-24 0 -24 -14 -4 -8 11 -18 34 -21 50 l-7 29 21 -25 c11 -14 21 -36 21 -50z
m-770 51 c0 -5 -7 -11 -15 -15 -8 -3 -15 -10 -15 -15 0 -6 16 1 36 14 40 27
50 30 58 16 13 -20 -6 -41 -30 -35 -17 4 -30 -1 -49 -20 -23 -23 -26 -24 -20
-6 14 43 -16 17 -42 -37 l-28 -58 -3 45 c-3 41 0 48 37 82 38 36 71 49 71 29z
m-1032 -40 c-5 -2 -15 2 -21 8 -6 6 -20 12 -31 12 -12 1 -5 4 14 8 26 5 37 2
41 -9 4 -8 2 -17 -3 -19z m1689 12 c45 -21 121 -95 129 -126 3 -15 3 -35 -1
-44 -6 -16 -8 -16 -15 2 -4 12 -15 27 -24 34 -14 12 -14 9 0 -39 9 -31 12 -56
6 -62 -11 -11 -183 172 -195 208 -14 40 -2 57 35 49 18 -4 47 -14 65 -22z
m-803 -68 c4 -42 11 -87 16 -100 8 -20 5 -27 -19 -44 -16 -11 -31 -18 -35 -14
-3 3 -6 43 -7 87 -1 72 -2 77 -11 46 -6 -19 -8 -64 -5 -98 4 -54 1 -70 -19
-105 l-23 -41 -13 29 c-15 36 -16 158 -1 177 6 7 13 24 16 38 7 30 75 112 86
105 5 -2 11 -39 15 -80z m286 20 c0 -4 -11 3 -24 16 -14 13 -22 27 -19 32 5 8
43 -35 43 -48z m-1204 18 c45 -13 53 -19 58 -46 3 -17 17 -45 31 -63 14 -18
25 -35 25 -38 0 -22 -147 19 -207 57 -38 24 -103 90 -103 105 0 13 141 2 196
-15z m1105 -62 c-5 -23 -5 -38 0 -35 5 3 9 9 9 13 0 5 7 26 17 47 l16 39 9
-32 c5 -18 15 -33 23 -33 15 0 35 -30 35 -52 0 -7 -7 -22 -15 -32 -14 -18 -15
-18 -34 5 -24 28 -28 9 -5 -26 12 -18 13 -28 5 -44 -6 -11 -12 -46 -12 -78 -1
-32 -3 -50 -6 -40 -2 9 -8 17 -13 17 -5 0 -15 3 -24 6 -9 3 -16 1 -16 -6 0 -6
-7 -18 -15 -26 -13 -14 -15 -13 -15 8 1 13 7 52 15 88 14 65 20 138 10 128 -4
-3 -11 -28 -18 -54 -9 -39 -17 -50 -35 -52 -25 -4 -41 23 -24 40 7 7 8 16 2
22 -5 7 -2 32 10 66 l18 55 -5 -62 c-3 -35 -3 -63 0 -63 3 0 11 24 17 53 13
52 51 119 57 100 2 -6 0 -29 -6 -52z m495 28 c46 -14 171 -150 157 -172 -3 -6
-2 -8 3 -5 5 3 18 -4 29 -15 l20 -20 -22 12 c-20 10 -22 9 -16 -6 3 -10 12
-23 20 -30 9 -7 11 -13 4 -18 -6 -3 -11 -2 -11 2 0 5 -9 14 -20 21 l-21 13 20
-38 c17 -34 25 -80 22 -120 -1 -7 -10 -13 -20 -13 -15 0 -22 10 -29 43 -6 23
-10 34 -11 23 -1 -15 -6 -13 -33 14 -18 18 -51 44 -74 59 -40 26 -91 78 -112
116 -10 17 -11 17 -12 3 0 -16 98 -125 130 -144 26 -16 58 -58 65 -86 6 -23 4
-28 -12 -28 -10 0 -24 5 -30 11 -9 9 -13 2 -18 -25 -4 -20 -11 -36 -15 -36 -4
0 -34 35 -66 78 -32 42 -61 79 -64 82 -13 13 -45 80 -60 130 -16 49 -16 57 -3
77 23 35 51 30 56 -9 2 -18 2 -5 0 29 -4 58 -3 62 19 66 25 4 57 0 104 -14z
m-599 -57 c-13 -68 -27 -82 -27 -28 0 28 29 100 37 92 1 -1 -3 -30 -10 -64z
m-793 39 c3 -4 24 -11 47 -15 31 -5 39 -10 31 -18 -15 -15 -76 -2 -97 22 -16
18 -16 20 -2 20 9 0 18 -4 21 -9z m464 -21 c-18 -17 -25 -27 -15 -24 9 3 17
10 17 15 0 9 53 39 70 39 10 0 -4 -37 -19 -50 -13 -11 -51 -70 -51 -79 0 -5
-9 -13 -20 -16 -16 -5 -20 -15 -20 -46 l0 -39 -35 22 c-40 27 -52 63 -35 112
15 48 77 96 123 96 13 0 10 -7 -15 -30z m77 -51 c-8 -23 -15 -47 -14 -53 0 -6
5 3 11 19 13 36 38 74 38 58 0 -6 -7 -43 -15 -81 -15 -71 -12 -101 13 -139 13
-21 13 -23 -5 -23 -11 0 -36 13 -54 30 -19 16 -37 30 -41 30 -16 0 -7 72 13
113 47 92 80 120 54 46z m-312 -1 c28 -15 20 -43 -16 -56 -58 -21 -79 -52 -84
-127 -3 -36 -10 -68 -15 -71 -16 -10 -48 28 -83 101 -43 88 -44 115 -6 148 27
22 35 24 108 19 43 -2 86 -9 96 -14z m835 -1 c-8 -6 -25 -30 -38 -52 l-23 -40
46 50 c25 28 49 47 53 43 4 -5 -3 -43 -15 -85 -12 -43 -25 -91 -30 -108 l-7
-30 -14 25 -14 25 -7 -25 c-4 -16 -7 -19 -8 -7 -1 20 -12 22 -30 5 -19 -19 -4
74 22 135 19 45 64 94 75 82 3 -3 -1 -11 -10 -18z m-760 -59 c-3 -7 -23 -16
-47 -21 -42 -8 -42 -8 -35 -45 3 -20 14 -51 24 -68 11 -20 15 -36 9 -45 -5 -8
-9 -24 -9 -36 0 -13 -4 -23 -9 -23 -18 0 -59 60 -76 110 -16 48 -16 51 4 78
26 38 149 81 139 50z m474 -60 c-2 -26 3 -68 11 -92 14 -40 14 -43 -2 -42 -11
1 -15 -5 -13 -19 5 -26 21 -45 38 -45 28 0 13 -17 -25 -28 -31 -10 -47 -9 -81
3 -52 18 -67 37 -76 91 -12 80 55 183 117 181 l34 -1 -3 -48z m1756 -4 c2 -28
-2 -47 -12 -57 -9 -9 -16 -20 -16 -26 0 -16 -26 -13 -44 4 -8 8 -17 15 -21 15
-3 0 -17 7 -30 16 -39 26 -17 37 23 13 l37 -22 -22 24 c-27 30 -28 37 -6 61
12 13 28 18 52 16 34 -3 36 -5 39 -44z m-1378 -55 c0 -26 -4 -51 -10 -54 -5
-3 -10 -17 -10 -31 0 -13 -4 -24 -10 -24 -5 0 -10 9 -10 20 0 11 -4 20 -10 20
-5 0 -10 -15 -10 -34 0 -19 -5 -38 -10 -41 -6 -4 -8 -11 -5 -16 4 -5 1 -9 -6
-9 -18 0 -6 72 26 163 22 63 30 75 41 66 8 -7 14 -31 14 -60z m128 -73 c49
-61 56 -76 60 -123 5 -61 2 -62 -62 -33 -89 42 -115 95 -101 205 7 56 7 56 27
38 11 -10 46 -49 76 -87z m681 38 c8 -8 -98 1 -121 11 -10 4 -18 3 -18 -1 0
-5 20 -17 45 -27 45 -19 50 -31 17 -39 -12 -4 -40 15 -86 57 l-68 62 112 -28
c62 -16 115 -31 119 -35z m-1633 -16 l-6 -63 14 40 c8 22 15 50 15 63 1 26 31
31 31 4 0 -10 15 -48 34 -85 32 -63 33 -67 14 -67 -29 0 -71 -33 -93 -74 -11
-20 -22 -36 -25 -36 -3 0 -14 14 -24 32 -29 47 -27 131 4 196 14 29 28 52 33
52 4 0 6 -28 3 -62z m2066 50 c42 -24 133 -92 157 -118 53 -57 126 -178 114
-189 -3 -3 -8 -1 -10 6 -5 13 -98 139 -116 158 -7 6 -25 20 -42 30 -28 17 -27
15 7 -19 44 -43 88 -99 88 -112 0 -4 -21 14 -47 41 -52 54 -174 155 -210 174
-27 14 -29 28 -5 34 31 8 42 7 64 -5z m-647 -16 c-3 -3 -11 0 -18 7 -9 10 -8
11 6 5 10 -3 15 -9 12 -12z m593 -34 c25 -18 55 -40 67 -48 11 -8 65 -59 119
-112 55 -54 103 -98 107 -98 10 0 85 -118 104 -162 17 -42 20 -94 5 -103 -5
-3 -18 -25 -28 -48 -29 -64 -55 -82 -117 -82 -29 0 -56 3 -60 7 -4 4 4 22 18
40 44 59 51 141 17 207 -19 38 -114 126 -163 152 -12 7 -41 26 -63 43 -23 17
-55 40 -70 51 -27 19 -138 108 -179 143 -19 17 -19 17 22 20 38 3 49 -3 140
-74 175 -136 199 -157 271 -226 28 -28 52 -55 52 -60 0 -4 5 -8 11 -8 43 0
-133 168 -313 299 -49 35 -88 67 -88 72 0 7 26 12 83 17 10 1 40 -13 65 -30z
m-520 -34 c79 -89 93 -191 28 -208 -11 -3 -43 -6 -71 -6 -36 0 -46 -3 -35 -10
8 -5 27 -10 42 -10 34 0 41 -12 23 -36 -19 -26 -91 -24 -137 4 -41 25 -93 95
-85 115 2 7 40 24 82 37 78 24 135 64 135 93 0 9 -12 29 -26 46 -46 55 -7 33
44 -25z m-2090 26 c23 -10 42 -20 42 -22 0 -2 -24 -3 -54 -3 -64 0 -102 -22
-129 -78 -20 -41 -25 -145 -8 -189 21 -54 130 -153 149 -134 3 3 1 6 -5 6 -19
0 -94 73 -119 115 -19 33 -24 55 -23 106 l1 64 13 -50 13 -50 1 48 c1 59 13
82 51 102 47 24 91 19 133 -16 20 -17 37 -38 36 -47 0 -14 -3 -13 -16 6 -36
51 -143 9 -143 -57 0 -34 32 -85 67 -108 15 -10 31 -22 35 -27 9 -13 68 -9
119 9 24 8 47 15 52 15 11 0 -4 -54 -17 -62 -8 -5 -7 -11 2 -20 16 -16 16 -75
0 -81 -10 -4 -10 -7 0 -18 26 -28 14 -39 -43 -39 -116 0 -245 78 -299 182 -70
131 -75 260 -13 327 42 45 88 51 155 21z m426 -22 c-11 -17 -24 -6 -24 19 0
26 1 26 14 8 8 -11 12 -23 10 -27z m1930 -16 c34 -32 108 -91 166 -132 58 -40
137 -96 175 -123 39 -27 78 -60 88 -74 18 -24 18 -25 0 -38 -27 -21 -102 -45
-137 -45 -36 0 -169 32 -206 49 -22 11 -25 18 -27 74 -3 102 -46 177 -102 177
-35 0 -50 -17 -58 -64 -8 -51 -28 -65 -55 -39 -17 17 -18 24 -8 43 14 26 6 84
-16 118 -14 22 -13 25 23 57 21 19 43 39 48 44 21 21 51 9 109 -47z m-2154 41
c-1 -5 -19 -20 -41 -36 -52 -36 -75 -24 -29 15 32 26 70 38 70 21z m650 -29
c0 -14 -3 -15 -17 -3 -10 7 -20 15 -22 16 -2 2 5 3 17 3 14 0 22 -6 22 -16z
m319 -11 c-1 -22 -2 -23 -6 -8 -3 11 -10 23 -17 27 -7 5 -5 8 7 8 12 0 17 -7
16 -27z m39 -33 c0 -9 -3 -7 -8 5 -5 11 -8 29 -8 40 0 16 2 15 8 -5 4 -14 8
-32 8 -40z m73 33 c-8 -15 -10 -15 -11 -2 0 17 10 32 18 25 2 -3 -1 -13 -7
-23z m-25 -31 c-11 -10 -15 4 -8 28 l7 25 3 -23 c2 -13 1 -26 -2 -30z m-1222
21 c39 -18 57 -44 25 -36 -10 3 -19 9 -19 14 0 5 -23 9 -51 9 -36 0 -60 -6
-81 -22 -20 -14 -29 -17 -26 -7 7 21 68 59 94 59 13 0 39 -7 58 -17z m1056 2
c0 -8 -4 -15 -10 -15 -5 0 -7 7 -4 15 4 8 8 15 10 15 2 0 4 -7 4 -15z m-634
-22 c15 -16 15 -17 -2 -25 -14 -6 -12 -7 7 -3 20 3 28 0 32 -13 2 -9 8 -25 12
-34 6 -15 2 -18 -24 -18 -31 0 -42 13 -18 24 6 3 -4 3 -23 0 -34 -5 -34 -4
-15 12 20 16 20 16 -2 11 -30 -7 -162 -90 -163 -102 0 -5 -12 -20 -27 -32
l-26 -23 24 -1 c23 -1 22 -1 -4 -9 -16 -5 -34 -13 -40 -18 -20 -15 -134 -23
-161 -11 -13 6 -28 21 -34 33 -9 21 -7 23 50 35 82 17 169 59 254 125 45 34
84 56 105 59 19 2 35 5 36 5 1 1 9 -6 19 -15z m941 -15 c-3 -8 -6 -5 -6 6 -1
11 2 17 5 13 3 -3 4 -12 1 -19z m431 -36 c22 -15 30 -42 12 -42 -17 0 -70 43
-70 57 0 14 21 8 58 -15z m-1100 -44 c-12 -56 -2 -144 23 -188 l19 -35 -6 30
c-3 17 -9 41 -14 55 -19 58 -21 80 -5 74 8 -4 15 -12 15 -20 0 -24 54 -91 97
-120 24 -16 43 -32 43 -35 0 -3 -17 -22 -37 -42 -42 -43 -96 -62 -146 -53 -41
8 -56 36 -68 129 -7 56 -8 54 -4 -22 4 -74 3 -82 -11 -70 -47 39 -59 159 -25
250 24 61 53 89 96 89 l33 0 -10 -42z m420 30 c8 -8 40 -13 76 -14 39 0 79 -8
101 -18 37 -18 96 -16 120 4 6 5 20 -1 34 -16 l23 -24 -48 -2 c-27 -1 -71 -1
-99 0 l-50 2 35 -14 c32 -12 33 -13 13 -20 -24 -8 -87 1 -115 15 -10 5 -19 5
-23 0 -11 -18 108 -53 198 -59 89 -5 105 -17 32 -25 l-40 -4 43 -1 c66 -3 41
-22 -31 -24 l-62 -1 50 -6 50 -6 -45 -12 c-66 -17 -149 -25 -130 -12 12 8 12
9 -5 8 -53 -7 -130 42 -179 115 -20 28 -36 60 -36 70 0 44 59 73 88 44z m-270
-14 c50 0 94 -3 97 -5 2 -3 -19 -30 -48 -60 -39 -42 -62 -58 -91 -63 -46 -9
-57 0 -78 64 -17 55 -13 85 10 73 10 -4 59 -8 110 -9z m-441 -20 c-3 -3 -12
-4 -19 -1 -8 3 -5 6 6 6 11 1 17 -2 13 -5z m1346 -97 c114 -71 254 -108 334
-87 91 22 153 80 153 142 0 38 33 55 65 34 28 -19 55 -98 55 -164 0 -103 -103
-190 -225 -191 -63 -1 -189 30 -250 60 -50 25 -114 85 -136 127 -8 15 -25 38
-38 52 -30 32 -81 111 -81 124 0 6 16 -6 36 -27 19 -21 59 -53 87 -70z m-1343
64 c-85 -26 -150 -82 -150 -129 0 -37 41 -112 77 -141 18 -14 33 -29 33 -33 0
-14 -70 -29 -107 -22 -62 11 -73 27 -73 109 0 64 3 77 30 113 44 62 127 111
185 111 29 -1 29 -1 5 -8z m633 -57 c16 -20 16 -22 -2 -43 -11 -13 -25 -19
-35 -15 -9 3 -16 8 -16 10 0 5 33 74 34 71 1 -1 9 -11 19 -23z m365 9 c-16 -2
-40 -2 -55 0 -16 2 -3 4 27 4 30 0 43 -2 28 -4z m-869 -51 c-18 -67 -18 -67
-39 -42 -21 24 -19 31 13 67 27 30 37 20 26 -25z m1618 31 c5 -13 -51 -28 -67
-18 -15 10 -12 23 8 28 27 8 55 3 59 -10z m-1173 -50 c70 -64 147 -96 210 -90
64 6 86 -1 86 -26 0 -26 -38 -67 -62 -67 -10 0 -18 -7 -18 -15 0 -23 -107 -21
-133 3 -19 16 -20 16 -14 0 9 -26 -12 -22 -58 9 -62 41 -93 94 -94 161 -1 32
13 72 25 72 4 0 29 -21 58 -47z m171 -48 l40 -27 -44 6 c-39 6 -72 19 -111 45
-12 8 -12 13 5 31 l18 20 26 -23 c14 -13 44 -37 66 -52z m351 -40 c8 -22 17
-101 21 -175 l7 -135 8 80 c4 44 5 116 2 160 -4 68 -3 77 8 60 9 -14 13 -61
13 -150 0 -132 -10 -183 -58 -295 -31 -71 -129 -139 -182 -126 -33 8 -32 18 5
40 35 20 76 80 102 145 27 70 41 191 36 322 -3 99 -2 119 10 117 8 -2 20 -21
28 -43z m-966 -3 c0 -4 -20 -16 -45 -27 -25 -11 -45 -23 -45 -27 0 -12 13 -10
55 8 24 10 41 12 47 6 23 -23 -110 -54 -141 -33 -12 8 -9 14 15 34 16 14 40
34 53 46 18 16 28 18 42 10 11 -5 19 -13 19 -17z m783 21 c-7 -2 -19 -2 -25 0
-7 3 -2 5 12 5 14 0 19 -2 13 -5z m37 -70 c6 -21 15 -80 20 -132 6 -52 17
-105 25 -117 19 -29 19 -68 1 -83 -8 -7 -17 -23 -20 -36 -4 -14 -10 -25 -15
-25 -8 0 -24 65 -37 150 -3 25 -10 50 -14 55 -4 6 -12 42 -19 82 -10 58 -10
79 0 108 18 48 45 47 59 -2z m1056 -10 c35 -22 132 -52 192 -59 44 -5 71 -1
121 16 35 11 65 19 68 17 2 -3 -2 -16 -8 -31 -8 -17 -21 -26 -38 -27 -25 -2
-25 -2 -3 -6 22 -4 23 -5 5 -18 -24 -19 -124 -19 -196 0 -54 14 -114 21 -77 8
8 -2 24 -8 35 -13 32 -14 146 -28 188 -23 22 3 37 1 37 -6 0 -22 -44 -33 -119
-29 -64 3 -88 9 -151 41 -41 20 -92 52 -113 70 l-39 32 22 27 c21 28 34 28 76
1z m-1476 -25 c20 -18 45 -38 56 -44 17 -10 17 -12 -11 -38 -15 -14 -45 -36
-64 -48 -20 -12 -38 -25 -41 -28 -3 -3 -16 -11 -30 -17 -14 -6 -19 -12 -12
-12 16 -1 99 46 127 72 38 36 74 57 79 48 3 -4 -21 -34 -54 -65 -100 -96 -244
-148 -420 -153 -94 -3 -109 -1 -145 19 -59 35 -85 79 -85 147 0 88 28 102 103
51 34 -23 60 -31 113 -36 66 -6 74 -4 169 36 95 40 156 75 163 92 6 13 13 10
52 -24z m-345 2 c17 -11 38 -20 48 -20 14 0 17 -5 11 -22 -11 -38 -25 -48 -63
-48 -28 0 -47 8 -74 33 -20 18 -37 35 -37 39 0 4 13 9 30 13 16 4 32 11 35 16
9 13 16 11 50 -11z m1310 -62 c3 3 3 -1 -1 -11 -3 -9 -1 -17 4 -17 6 0 14 -9
17 -20 3 -11 12 -26 18 -33 7 -7 28 -35 46 -62 19 -28 37 -52 40 -55 9 -7 46
-62 55 -80 4 -8 -7 1 -24 20 -36 39 -200 257 -200 265 0 3 -9 14 -20 25 -11
11 -20 26 -20 33 0 6 18 -7 39 -30 21 -23 42 -39 46 -35z m-1421 16 l29 -37
-28 7 c-43 11 -77 40 -62 55 18 18 30 13 61 -25z m758 -19 c5 -5 -42 -161 -61
-200 -18 -37 -23 -65 -12 -65 6 0 11 7 11 15 0 8 5 15 10 15 6 0 10 -7 10 -15
0 -8 -4 -15 -10 -15 -5 0 -11 -10 -11 -22 -1 -17 -2 -19 -6 -5 -2 9 -8 17 -13
17 -4 0 -3 -13 3 -30 9 -24 9 -33 -4 -45 -14 -14 -17 -13 -29 9 -11 22 -10 33
4 80 10 30 15 64 11 76 -7 21 10 28 19 8 3 -7 3 5 1 27 -4 28 -3 34 4 20 5
-13 7 6 3 53 -4 62 -2 72 12 72 9 0 16 -8 17 -17 0 -14 2 -13 9 5 9 21 21 28
32 17z m-86 -27 c-4 -13 -11 -50 -17 -83 -33 -199 -72 -326 -151 -492 -57
-121 -99 -161 -193 -182 -108 -25 -205 47 -205 152 0 55 15 62 28 14 16 -57
40 -77 92 -77 78 0 114 48 186 249 19 53 38 105 43 116 15 31 59 170 66 207 7
33 70 116 81 106 3 -4 -2 -20 -10 -37 -9 -16 -16 -37 -16 -46 0 -9 -4 -14 -9
-11 -4 3 -18 -43 -31 -102 -67 -318 -116 -440 -202 -502 -22 -17 -35 -30 -28
-30 23 0 77 40 101 74 17 25 26 31 32 23 6 -8 7 -5 3 7 -4 10 -2 24 3 30 21
25 76 212 96 325 15 88 49 184 71 201 10 9 13 23 8 46 -6 33 -5 34 26 34 29 0
32 -2 26 -22z m574 -142 c0 -5 -13 11 -30 35 -16 24 -30 48 -30 53 0 5 13 -11
30 -35 16 -24 30 -48 30 -53z m-426 -69 c9 -27 23 -61 31 -77 15 -28 14 -30
-25 -61 -22 -18 -40 -38 -40 -44 0 -31 101 -95 150 -95 11 0 20 -6 20 -12 0
-7 3 -24 7 -37 6 -22 4 -22 -63 14 -84 44 -111 71 -162 155 l-39 64 33 81 c19
44 34 90 34 103 0 12 6 31 13 42 11 18 13 15 18 -32 3 -29 14 -75 23 -101z
m-87 61 c-3 -8 -6 -5 -6 6 -1 11 2 17 5 13 3 -3 4 -12 1 -19z m553 -38 c4 0
15 -12 25 -27 13 -22 9 -20 -19 9 -20 21 -36 43 -35 50 0 7 5 3 11 -9 6 -13
14 -23 18 -23z m-563 -2 c-3 -8 -6 -5 -6 6 -1 11 2 17 5 13 3 -3 4 -12 1 -19z
m-694 -88 c-1 -19 1 -29 3 -22 3 6 11 12 19 12 7 0 18 7 25 15 17 21 21 19 57
-24 l31 -38 -90 -23 c-86 -22 -92 -22 -104 -6 -13 18 -8 45 17 99 18 40 45 31
42 -13z m1441 -96 c112 -111 162 -144 264 -170 64 -16 70 -16 102 -1 18 9 35
17 37 17 10 0 0 -31 -19 -55 -20 -26 -24 -27 -85 -22 -114 11 -209 69 -270
164 -19 30 -64 86 -101 126 -90 97 -51 66 72 -59z m-415 41 c-12 -30 -26 -55
-31 -55 -4 0 -8 -6 -8 -12 0 -7 -15 -23 -33 -35 -34 -23 -85 -29 -122 -13 -23
9 -18 12 51 30 50 12 104 61 135 121 30 59 36 32 8 -36z m-729 22 c0 -36 -178
-148 -188 -118 -2 6 -14 8 -28 5 -15 -4 -24 -2 -24 5 0 6 -7 11 -15 11 -8 0
-15 4 -15 8 0 11 218 95 263 101 4 1 7 -5 7 -12z m349 -66 c20 -22 52 -77 71
-122 21 -49 50 -98 71 -120 48 -49 123 -74 195 -65 30 3 54 3 54 -1 0 -5 -21
-21 -48 -38 -42 -27 -56 -30 -122 -30 -95 1 -142 24 -225 110 -56 58 -124 158
-95 140 9 -5 10 -2 5 14 -4 12 -2 27 3 34 15 18 42 99 36 109 -3 4 0 8 7 8 7
0 28 -18 48 -39z m463 -66 c30 -61 25 -58 -35 13 -15 19 -27 45 -27 60 1 26 1
27 16 7 9 -11 29 -47 46 -80z m331 8 c79 -111 113 -136 240 -179 64 -22 67
-24 27 -19 -60 8 -181 68 -230 116 -46 45 -116 159 -97 159 2 0 29 -35 60 -77z
m-288 -119 c68 -69 85 -89 85 -102 0 -12 86 -92 99 -92 5 0 11 -4 13 -9 3 -8
141 -113 195 -148 17 -11 17 -12 -3 -12 -32 -1 -142 36 -193 65 -25 15 -66 37
-90 50 -62 34 -125 87 -181 154 -26 32 -51 56 -54 53 -3 -4 -7 0 -8 8 0 8 -2
19 -2 24 -1 6 -11 28 -24 48 -28 47 -28 46 5 81 l27 30 36 -44 c19 -25 62 -72
95 -106z m751 113 c35 -37 55 -86 52 -125 -3 -37 -3 -37 -67 -50 -35 -7 -66
-10 -69 -8 -2 3 5 15 17 27 25 27 35 75 28 135 -5 50 6 56 39 21z m-576 -263
c0 -10 -48 28 -66 53 -40 56 -36 57 14 5 29 -29 52 -55 52 -58z m382 -61 c13
-12 18 -30 18 -69 0 -45 -4 -56 -26 -73 -15 -12 -41 -21 -58 -21 l-31 0 35 18
c60 30 80 107 38 143 -16 12 -18 18 -9 19 8 0 23 -7 33 -17z"/>
<path d="M2575 3640 c3 -5 11 -10 16 -10 6 0 7 5 4 10 -3 6 -11 10 -16 10 -6
0 -7 -4 -4 -10z"/>
<path d="M3005 3587 c-38 -29 -70 -57 -64 -57 3 0 30 18 59 40 29 22 49 40 44
39 -5 0 -22 -10 -39 -22z"/>
<path d="M3039 3493 c-13 -15 -12 -15 9 -4 23 12 28 21 13 21 -5 0 -15 -7 -22
-17z"/>
<path d="M2780 3379 c0 -5 5 -7 10 -4 6 3 10 8 10 11 0 2 -4 4 -10 4 -5 0 -10
-5 -10 -11z"/>
<path d="M2290 3210 c-8 -5 -10 -10 -5 -10 6 0 17 5 25 10 8 5 11 10 5 10 -5
0 -17 -5 -25 -10z"/>
<path d="M3523 3000 c0 -41 2 -58 4 -37 2 20 2 54 0 75 -2 20 -4 3 -4 -38z"/>
<path d="M3501 2864 c0 -11 3 -14 6 -6 3 7 2 16 -1 19 -3 4 -6 -2 -5 -13z"/>
<path d="M3306 2613 c-6 -14 -5 -15 5 -6 7 7 10 15 7 18 -3 3 -9 -2 -12 -12z"/>
<path d="M4077 3006 c5 -14 3 -17 -7 -11 -9 5 -11 4 -6 -4 4 -6 11 -9 16 -6
11 7 27 -15 33 -45 4 -25 4 -25 6 2 0 16 -9 38 -24 55 -18 20 -23 22 -18 9z"/>
<path d="M4080 2814 c0 -5 7 -18 15 -28 12 -16 15 -17 15 -4 0 8 -7 21 -15 28
-8 7 -15 9 -15 4z"/>
<path d="M4116 2756 c-23 -48 -19 -59 4 -12 11 22 18 41 16 43 -2 2 -11 -12
-20 -31z"/>
<path d="M4062 2679 c-13 -16 -17 -27 -10 -24 13 5 42 45 36 50 -2 1 -13 -11
-26 -26z"/>
<path d="M1801 2974 c0 -11 3 -14 6 -6 3 7 2 16 -1 19 -3 4 -6 -2 -5 -13z"/>
<path d="M1840 2815 c0 -5 5 -17 10 -25 5 -8 10 -10 10 -5 0 6 -5 17 -10 25
-5 8 -10 11 -10 5z"/>
<path d="M2678 2292 c9 -10 19 -17 21 -16 6 5 -20 34 -30 34 -5 0 -1 -8 9 -18z"/>
<path d="M2626 2238 c59 -66 78 -84 69 -68 -16 30 -87 110 -97 110 -6 0 7 -19
28 -42z"/>
<path d="M2641 2075 c1 -19 18 -51 18 -35 0 8 -4 22 -9 30 -5 8 -9 11 -9 5z"/>
<path d="M2791 2064 c0 -11 3 -14 6 -6 3 7 2 16 -1 19 -3 4 -6 -2 -5 -13z"/>
<path d="M1958 2201 c-27 -32 -51 -71 -46 -76 2 -2 21 18 41 45 36 48 39 71 5
31z"/>
<path d="M2431 2074 c0 -11 3 -14 6 -6 3 7 2 16 -1 19 -3 4 -6 -2 -5 -13z"/>
<path d="M3946 1641 c4 -8 11 -28 15 -45 6 -29 7 -29 8 -5 1 14 -6 34 -15 45
-8 10 -12 13 -8 5z"/>
<path d="M3881 1594 c0 -11 3 -14 6 -6 3 7 2 16 -1 19 -3 4 -6 -2 -5 -13z"/>
<path d="M3885 1526 c-4 -20 -11 -39 -16 -42 -5 -3 -9 -10 -9 -16 0 -7 5 -7
14 1 14 12 31 79 22 88 -2 3 -8 -11 -11 -31z"/>
<path d="M860 1811 c0 -22 27 -65 59 -94 62 -55 224 -147 237 -134 3 3 -25 20
-63 38 -37 19 -72 37 -78 42 -5 4 -30 22 -54 39 -24 18 -57 52 -72 77 -16 25
-29 39 -29 32z"/>
<path d="M1138 1683 c7 -3 16 -2 19 1 4 3 -2 6 -13 5 -11 0 -14 -3 -6 -6z"/>
<path d="M2288 1743 c6 -2 18 -2 25 0 6 3 1 5 -13 5 -14 0 -19 -2 -12 -5z"/>
<path d="M2208 1718 c5 -5 16 -8 23 -6 8 3 3 7 -10 11 -17 4 -21 3 -13 -5z"/>
<path d="M1795 1860 c-3 -5 1 -10 9 -10 9 0 16 5 16 10 0 6 -4 10 -9 10 -6 0
-13 -4 -16 -10z"/>
<path d="M3312 1770 c0 -14 2 -19 5 -12 2 6 2 18 0 25 -3 6 -5 1 -5 -13z"/>
<path d="M3295 1695 c-10 -22 -29 -55 -42 -72 -13 -18 -19 -33 -14 -33 6 0 11
5 11 11 0 6 7 8 16 5 11 -4 18 1 21 14 3 11 9 20 14 20 10 0 23 63 17 82 -3 7
-13 -5 -23 -27z"/>
<path d="M3210 1661 c-14 -22 -34 -44 -44 -49 -18 -8 -18 -9 -2 -15 11 -4 15
-3 11 4 -4 6 1 9 11 7 13 -2 18 2 16 13 -1 10 4 16 14 15 11 -1 17 9 19 32 1
17 2 32 1 32 -1 0 -13 -18 -26 -39z"/>
<path d="M3160 1640 c-9 -6 -10 -10 -3 -10 6 0 15 5 18 10 8 12 4 12 -15 0z"/>
<path d="M3075 1599 c-49 -18 -49 -18 -15 -18 32 0 89 16 65 18 -5 1 -3 6 5
11 21 14 3 10 -55 -11z"/>
<path d="M1990 1617 c0 -2 15 -16 33 -33 l32 -29 -29 33 c-28 30 -36 37 -36
29z"/>
<path d="M2060 1616 c0 -10 102 -56 122 -55 15 0 8 5 -20 14 -23 7 -48 17 -55
22 -14 11 -47 24 -47 19z"/>
<path d="M2362 1310 c0 -14 2 -19 5 -12 2 6 2 18 0 25 -3 6 -5 1 -5 -13z"/>
<path d="M2392 1300 c0 -14 2 -19 5 -12 2 6 2 18 0 25 -3 6 -5 1 -5 -13z"/>
<path d="M3618 1503 c6 -2 18 -2 25 0 6 3 1 5 -13 5 -14 0 -19 -2 -12 -5z"/>
<path d="M1370 1416 c0 -19 65 -66 112 -82 60 -20 185 -23 214 -5 17 11 17 11
-3 6 -42 -11 -142 -7 -198 9 -30 9 -71 30 -90 47 -19 17 -35 28 -35 25z"/>
<path d="M1778 1353 c7 -3 16 -2 19 1 4 3 -2 6 -13 5 -11 0 -14 -3 -6 -6z"/>
<path d="M1738 1343 c7 -3 16 -2 19 1 4 3 -2 6 -13 5 -11 0 -14 -3 -6 -6z"/>
<path d="M1947 1092 c-20 -67 -22 -87 -3 -52 13 23 32 110 24 110 -1 0 -11
-26 -21 -58z"/>
<path d="M2061 1134 c0 -11 3 -14 6 -6 3 7 2 16 -1 19 -3 4 -6 -2 -5 -13z"/>
<path d="M1908 938 c-13 -29 -14 -37 -4 -29 13 11 31 60 24 66 -2 2 -11 -15
-20 -37z"/>
<path d="M1816 813 c-6 -14 -5 -15 5 -6 7 7 10 15 7 18 -3 3 -9 -2 -12 -12z"/>
<path d="M1713 773 c9 -2 25 -2 35 0 9 3 1 5 -18 5 -19 0 -27 -2 -17 -5z"/>
<path d="M2157 1003 c61 -118 83 -154 113 -180 39 -35 55 -27 21 10 -57 61
-72 81 -78 106 -3 14 -12 36 -20 47 -8 13 -11 32 -8 47 4 14 2 28 -3 31 -6 4
-8 -3 -5 -16 4 -20 1 -18 -22 10 -46 55 -45 35 2 -55z"/>
<path d="M2110 1025 c7 -9 15 -13 17 -11 7 7 -7 26 -19 26 -6 0 -6 -6 2 -15z"/>
<path d="M2150 954 c0 -8 5 -12 10 -9 6 3 10 10 10 16 0 5 -4 9 -10 9 -5 0
-10 -7 -10 -16z"/>
<path d="M2121 945 c0 -13 38 -59 44 -54 2 3 -7 18 -20 34 -13 17 -24 26 -24
20z"/>
<path d="M2171 924 c0 -11 3 -14 6 -6 3 7 2 16 -1 19 -3 4 -6 -2 -5 -13z"/>
<path d="M2176 885 c-8 -23 -8 -27 4 -20 6 3 7 -1 4 -9 -5 -14 6 -21 21 -13 2
1 12 -7 21 -18 13 -16 13 -14 -1 10 -38 63 -42 68 -49 50z"/>
<path d="M2550 1030 c0 -5 5 -10 11 -10 5 0 7 5 4 10 -3 6 -8 10 -11 10 -2 0
-4 -4 -4 -10z"/>
<path d="M2590 971 c5 -11 15 -23 21 -27 6 -3 3 5 -6 20 -20 30 -30 35 -15 7z"/>
<path d="M2550 936 c0 -2 8 -10 18 -17 15 -13 16 -12 3 4 -13 16 -21 21 -21
13z"/>
<path d="M2610 861 c0 -6 4 -13 10 -16 6 -3 7 1 4 9 -7 18 -14 21 -14 7z"/>
<path d="M1922 3739 c-39 -20 -75 -59 -53 -59 5 0 12 7 15 16 3 8 26 24 52 35
45 21 52 20 117 -6 10 -4 17 -3 17 3 0 11 -60 32 -90 32 -8 0 -34 -10 -58 -21z"/>
<path d="M4750 2710 c-21 -13 -19 -134 3 -180 l17 -35 -5 43 c-3 23 -8 60 -11
83 -4 25 -2 49 6 65 15 27 11 37 -10 24z"/>
<path d="M4642 2369 c-19 -6 -54 -30 -78 -55 -66 -69 -62 -118 22 -234 19 -27
31 -50 27 -53 -4 -2 -24 -7 -44 -11 -57 -10 -82 -45 -87 -120 -4 -68 9 -108
50 -146 48 -45 238 -133 238 -111 0 5 -76 45 -198 105 -11 5 -30 25 -43 44
-19 28 -24 48 -24 98 0 77 24 108 88 117 35 5 45 2 64 -18 12 -13 32 -30 45
-39 33 -23 14 -31 -32 -12 -28 11 -46 13 -58 7 -29 -16 -85 -79 -78 -89 3 -5
40 -36 81 -67 l75 -58 41 13 40 13 -3 66 -3 66 -35 5 -35 6 38 14 c36 14 50
30 24 30 -31 0 -88 55 -147 142 -54 80 -63 100 -64 140 -1 53 23 87 86 119 49
25 76 24 88 -3 6 -13 15 -31 22 -40 22 -31 -4 -64 -59 -74 -42 -8 -48 -13 -51
-35 -3 -23 4 -30 43 -49 26 -12 56 -38 70 -58 l25 -37 0 73 0 74 -36 -22 c-29
-19 -40 -21 -60 -11 -13 6 -24 15 -24 20 0 14 34 31 59 31 46 0 79 73 46 100
-8 7 -15 21 -15 31 0 19 -28 40 -52 38 -7 0 -28 -5 -46 -10z"/>
<path d="M3580 2300 c-9 -6 -10 -10 -3 -10 6 0 15 5 18 10 8 12 4 12 -15 0z"/>
<path d="M3552 2222 c-62 -41 -62 -53 0 -21 23 13 45 22 48 22 3 -1 7 7 7 18
1 10 1 19 0 18 -1 -1 -26 -17 -55 -37z"/>
<path d="M3480 2235 c-7 -8 -8 -15 -2 -15 5 0 15 7 22 15 7 8 8 15 2 15 -5 0
-15 -7 -22 -15z"/>
<path d="M3398 2193 c7 -3 16 -2 19 1 4 3 -2 6 -13 5 -11 0 -14 -3 -6 -6z"/>
<path d="M3790 1042 c0 -10 6 -27 14 -38 14 -18 15 -16 13 18 -2 38 -27 56
-27 20z"/>
<path d="M3856 1032 c5 -4 24 -20 42 -36 25 -24 32 -26 32 -13 0 10 -15 26
-32 37 -32 19 -62 28 -42 12z"/>
<path d="M3810 926 c0 -8 5 -18 10 -21 6 -3 10 3 10 14 0 12 -4 21 -10 21 -5
0 -10 -6 -10 -14z"/>
<path d="M3900 930 c0 -32 -116 -120 -159 -120 -7 0 -11 -6 -8 -12 6 -18 67
-11 97 11 54 39 110 131 80 131 -5 0 -10 -4 -10 -10z"/>
<path d="M3598 863 c6 -2 18 -2 25 0 6 3 1 5 -13 5 -14 0 -19 -2 -12 -5z"/>
<path d="M3606 789 c14 -14 31 -19 50 -17 l29 4 -39 17 c-51 23 -65 21 -40 -4z"/>
</g>
</svg>
